<svg xmlns="http://www.w3.org/2000/svg" version="1.1" xmlns:xlink="http://www.w3.org/1999/xlink" viewBox="0 0 200 200"><rect width="200" height="200" fill="url('#gradient')"></rect><defs><linearGradient id="gradient" gradientTransform="rotate(45 0.5 0.5)"><stop offset="0%" stop-color="#472027"></stop><stop offset="100%" stop-color="#192025"></stop></linearGradient></defs><g><g fill="#f3bd7d" transform="matrix(5.122462722462722,0,0,5.122462722462722,42.49977088744048,135.9101814122771)" stroke="#c06a3e" stroke-width="0"><path d="M6.69-4.82L4.50-4.82L4.50 0L1.07 0L1.07-14.22L6.75-14.22Q8.38-14.22 9.63-13.62Q10.89-13.02 11.58-11.91Q12.27-10.80 12.27-9.39L12.27-9.39Q12.27-7.31 10.78-6.07Q9.29-4.82 6.69-4.82L6.69-4.82ZM4.50-11.57L4.50-7.47L6.75-7.47Q7.74-7.47 8.27-7.97Q8.79-8.47 8.79-9.38L8.79-9.38Q8.79-10.37 8.25-10.97Q7.71-11.56 6.79-11.57L6.79-11.57L4.50-11.57ZM17.96-4.46L17.96-14.22L21.38-14.22L21.38-4.46Q21.38-3.11 20.75-2.04Q20.12-0.98 18.99-0.39Q17.86 0.20 16.47 0.20L16.47 0.20Q14.15 0.20 12.86-0.98Q11.57-2.15 11.57-4.30L11.57-4.30L15.01-4.30Q15.01-3.32 15.35-2.88Q15.68-2.44 16.47-2.44L16.47-2.44Q17.19-2.44 17.57-2.97Q17.96-3.51 17.96-4.46L17.96-4.46Z"></path></g></g></svg>